<?xml version="1.0" encoding="iso-8859-1"?>
<!-- Generator: Adobe Illustrator 19.0.0, SVG Export Plug-In . SVG Version: 6.00 Build 0)  -->
<svg version="1.1" id="Capa_1" xmlns="http://www.w3.org/2000/svg" xmlns:xlink="http://www.w3.org/1999/xlink" x="0px" y="0px"
	 viewBox="0 0 512 512" style="enable-background:new 0 0 512 512;" xml:space="preserve">
<path style="fill:#CAE8F9;" d="M255,0C130.8,0,30,100.8,30,225v15c0,12.299,14.099,19.499,24.001,11.999
	C64.2,244.2,77.102,240,90,240h15c8.401,0,15-6.601,15-15c0-74.401,60.601-135,135-135c74.7,0,137,60.3,137,135
	c0,8.399,6.599,15,15,15h15c12.898,0,25.8,4.2,35.999,11.999c9.902,7.5,24.001,0.3,24.001-11.999v-15C482,100.8,379.2,0,255,0z"/>
<g>
	<path style="fill:#B7E0F6;" d="M482,225v15c0,12.299-14.099,19.499-24.001,11.999C447.8,244.2,434.898,240,422,240h-15
		c-8.401,0-15-6.601-15-15c0-74.7-62.3-135-137-135V0C379.2,0,482,100.8,482,225z"/>
	<path style="fill:#B7E0F6;" d="M422,407c0,41.353-33.633,75-75,75h-30c-19.773,0-19.854-30,0-30h30c24.814,0,45-20.186,45-45v-30
		c0-8.291,6.709-15,15-15s15,6.709,15,15V407z"/>
</g>
<path style="fill:#B758CE;" d="M287,422h-32c-59.399,0-59.399,90,0,90h32C346.399,512,346.399,422,287,422z"/>
<path style="fill:#AA3DC8;" d="M180,347c0,24.814-20.186,45-45,45h-30c-8.291,0-15-6.709-15-15V225c0-8.291,6.709-15,15-15h30
	c24.814,0,45,20.186,45,45V347z"/>
<path style="fill:#9332B0;" d="M422,377c0,8.291-6.709,15-15,15h-30c-24.814,0-45-20.186-45-45v-92c0-24.814,20.186-45,45-45h30
	c8.291,0,15,6.709,15,15V377z"/>
<path style="fill:#AA3DC8;" d="M287,512h-32v-90h32C346.399,422,346.399,512,287,512z"/>
<path style="fill:#B758CE;" d="M120,392H90c-49.629,0-90-42.371-90-92c0-51.221,41.436-90,90-90h30V392z"/>
<path style="fill:#AA3DC8;" d="M512,300c0,50.163-40.44,92-90,92h-30V210h30C470.906,210,512,249.423,512,300z"/>
<g>
</g>
<g>
</g>
<g>
</g>
<g>
</g>
<g>
</g>
<g>
</g>
<g>
</g>
<g>
</g>
<g>
</g>
<g>
</g>
<g>
</g>
<g>
</g>
<g>
</g>
<g>
</g>
<g>
</g>
</svg>
