<?xml version="1.0" encoding="iso-8859-1"?>
<!-- Generator: Adobe Illustrator 19.0.0, SVG Export Plug-In . SVG Version: 6.00 Build 0)  -->
<svg version="1.1" id="Capa_1" xmlns="http://www.w3.org/2000/svg" xmlns:xlink="http://www.w3.org/1999/xlink" x="0px" y="0px"
	 viewBox="0 0 512 512" style="enable-background:new 0 0 512 512;" xml:space="preserve">
<path style="fill:#136EF1;" d="M321.046,97.061c-9.672-15.902-23.322-26.666-38.701-32.271c-6.973-2.549-11.045-9.829-9.551-17.109
	C278.478,20.054,303.087,0,331.3,0c33.076,0,60,26.909,60,60c0,28.389-20.039,53.115-47.666,58.784
	C328.949,121.721,327.869,109.752,321.046,97.061z"/>
<path style="fill:#B7E0F6;" d="M361.3,452h-30c-19.773,0-19.854-30,0-30h30C381.074,422,381.155,452,361.3,452z"/>
<path style="fill:#17ACE8;" d="M383.8,318.8l-26.609-6.749c-7.155-1.815-14.567,1.846-17.475,8.631l-0.918,2.142
	C324.663,355.717,292.273,377,256.3,377c-36.921,0-69.689-22.556-83.638-56.201c-2.861-6.901-10.454-10.563-17.699-8.739
	L128.2,318.8c-39.001,9.601-63.3,48-55.499,87.299l18.9,93.9c1.501,6.899,7.5,12.001,14.7,12.001H405.7
	c7.2,0,13.198-5.102,14.7-12.001l18.9-93.9C447.1,366.799,422.802,328.4,383.8,318.8z"/>
<path style="fill:#1689FC;" d="M383.8,318.8l-26.609-6.749c-7.155-1.815-14.567,1.846-17.475,8.631l-0.918,2.142
	C324.663,355.717,292.273,377,256.3,377v135h149.4c7.2,0,13.198-5.102,14.7-12.001l18.9-93.9
	C447.1,366.799,422.802,328.4,383.8,318.8z"/>
<path style="fill:#FEDBAB;" d="M321.398,82.5C307.899,105.599,283.001,120,256.3,120h-90.4c-8.284,0-15,6.716-15,15v62
	c0,60.3,49.6,105,105.4,105c56.1,0,105-45.601,105-105v-62c0-12.301-2.102-24.3-6.299-35.4c-0.861-2.724-1.995-5.447-3.24-8.138
	c-2.439-5.274-7.665-8.701-13.475-8.768L321.398,82.5z"/>
<path style="fill:#FEC478;" d="M321.398,82.5C307.899,105.599,283.001,120,256.3,120v182c56.1,0,105-45.601,105-105v-62
	c0-12.301-2.102-24.3-6.299-35.4c-0.861-2.724-1.995-5.447-3.24-8.138c-2.439-5.274-7.665-8.701-13.475-8.768L321.398,82.5z"/>
<path style="fill:#FEDBAB;" d="M330.7,305.3v-40.8c0-12.9-15.3-19.801-24.899-11.4c-14.103,12.299-31.501,18.3-49.501,18.3
	c-18.3,0-36.299-6.301-49.797-18.6c-9.902-8.699-25.603-1.8-25.603,11.1v41.4c-11.4,2.999-26.897,6.899-26.897,6.899
	C166.3,359.9,208.898,392,256.3,392c42.001,0,79.797-24.901,96.299-63.3l6.899-16.201L330.7,305.3z"/>
<path style="fill:#FEC478;" d="M359.499,312.499L352.6,328.7c-16.502,38.399-54.299,63.3-96.3,63.3V271.399
	c17.999,0,35.398-6,49.501-18.3c9.598-8.401,24.899-1.5,24.899,11.4v40.8L359.499,312.499z"/>
<path style="fill:#1689FC;" d="M256.3,30c-57.898,0-105.4,47.1-105.4,105v15h105.4c37.5,0,72.297-20.101,90.901-52.5l4.197-7.5
	C330.7,49.499,293.2,30,256.3,30z"/>
<path style="fill:#136EF1;" d="M256.3,150V30c36.899,0,74.399,19.499,95.098,60l-4.197,7.5C328.598,129.899,293.8,150,256.3,150z"/>
<g>
</g>
<g>
</g>
<g>
</g>
<g>
</g>
<g>
</g>
<g>
</g>
<g>
</g>
<g>
</g>
<g>
</g>
<g>
</g>
<g>
</g>
<g>
</g>
<g>
</g>
<g>
</g>
<g>
</g>
</svg>
