<?xml version="1.0" encoding="iso-8859-1"?>
<!-- Generator: Adobe Illustrator 19.0.0, SVG Export Plug-In . SVG Version: 6.00 Build 0)  -->
<svg version="1.1" id="Capa_1" xmlns="http://www.w3.org/2000/svg" xmlns:xlink="http://www.w3.org/1999/xlink" x="0px" y="0px"
	 viewBox="0 0 512 512" style="enable-background:new 0 0 512 512;" xml:space="preserve">
<path style="fill:#CAE8F9;" d="M361,60H31c-8.401,0-15,6.599-15,15v332c0,8.399,6.599,15,15,15h330c8.401,0,15-6.601,15-15V75
	C376,66.599,369.401,60,361,60z"/>
<path style="fill:#B7E0F6;" d="M376,75v332c0,8.399-6.599,15-15,15H196V60h165C369.401,60,376,66.599,376,75z"/>
<path style="fill:#1689FC;" d="M331,0H61C36.098,0,16,20.099,16,45v45h360V45C376,20.099,355.902,0,331,0z"/>
<path style="fill:#136EF1;" d="M376,45v45H196V0h135C355.902,0,376,20.099,376,45z"/>
<path style="fill:#FE9923;" d="M496,165c0-12.407-5.046-23.657-13.195-31.805l-25.914,7.456
	c-10.628,3.058-20.306,8.764-28.126,16.585l-57.217,57.217c-3.649,3.649-5.293,8.846-4.407,13.93
	c0.886,5.084,4.191,9.418,8.859,11.618c-4.593,2.45-7.753,6.93-8.519,12.079c-0.766,5.148,0.953,10.355,4.633,14.036l60.463,60.463
	c12.316,12.316,31.747,15.211,50.228,20.228C490.954,338.657,496,327.407,496,315V165z"/>
<path style="fill:#FEA832;" d="M286,240c7.8,9,7.5,22.5-0.901,30.899L238.898,317.1C225.399,330.599,212.201,336,196,341.4
	c-5.098,1.8-10.8,3.3-16.802,5.4C171.098,338.699,166,327.299,166,315V165c0-12.301,5.098-23.701,13.198-31.8L196,138.3l2.402,0.601
	c15.3,4.199,28.799,12.299,39.895,23.399l51.303,51.3C297.4,221.4,295.602,234.6,286,240z"/>
<path style="fill:#FFCC33;" d="M482.802,346.8C474.701,354.899,463.297,360,451,360H211c-5.398,0-10.499-0.901-15-2.701
	c-6.599-2.1-12.297-6-16.802-10.499L286,240l23.701-6.301c11.697,11.7,30.901,11.7,42.598,0L376,240L482.802,346.8z"/>
<path style="fill:#FEDB41;" d="M482.802,133.2L352.299,263.699c-11.697,11.7-30.901,11.7-42.598,0L179.198,133.2
	c4.504-4.501,10.203-8.401,16.802-10.501c4.501-1.8,9.602-2.699,15-2.699h240C463.297,120,474.701,125.099,482.802,133.2z"/>
<path style="fill:#1689FC;" d="M16,392v75c0,24.899,20.098,45,45,45h270c24.902,0,45-20.101,45-45v-75H16z"/>
<path style="fill:#136EF1;" d="M196,392h180v75c0,24.899-20.098,45-45,45H196V392z"/>
<g>
</g>
<g>
</g>
<g>
</g>
<g>
</g>
<g>
</g>
<g>
</g>
<g>
</g>
<g>
</g>
<g>
</g>
<g>
</g>
<g>
</g>
<g>
</g>
<g>
</g>
<g>
</g>
<g>
</g>
</svg>
