<?xml version="1.0" encoding="iso-8859-1"?>
<!-- Generator: Adobe Illustrator 19.0.0, SVG Export Plug-In . SVG Version: 6.00 Build 0)  -->
<svg version="1.1" id="Capa_1" xmlns="http://www.w3.org/2000/svg" xmlns:xlink="http://www.w3.org/1999/xlink" x="0px" y="0px"
	 viewBox="0 0 512 512" style="enable-background:new 0 0 512 512;" xml:space="preserve">
<path style="fill:#B758CE;" d="M467,61H45C20.098,61,0,81.099,0,106v300c0,24.901,20.098,45,45,45h422c24.902,0,45-20.099,45-45V106
	C512,81.099,491.902,61,467,61z"/>
<path style="fill:#AA3DC8;" d="M512,106v300c0,24.901-20.098,45-45,45H150V61h317C491.902,61,512,81.099,512,106z"/>
<g>
	<path style="fill:#CAE8F9;" d="M150,241c-49.501,0-90,40.499-90,90v15c0,24.901,20.098,45,45,45h90c24.902,0,45-20.099,45-45v-15
		C240,281.499,199.501,241,150,241z"/>
	<path style="fill:#CAE8F9;" d="M150,121c-32.999,0-60,27.001-60,60s27.001,60,60,60s60-27.001,60-60S182.999,121,150,121z"/>
</g>
<g>
	<path style="fill:#1DE8F1;" d="M437,361H287c-19.773,0-19.854-30,0-30h150C456.773,331,456.854,361,437,361z"/>
	<path style="fill:#1DE8F1;" d="M437,301H287c-19.773,0-19.854-30,0-30h150C456.773,271,456.854,301,437,301z"/>
	<path style="fill:#1DE8F1;" d="M437,241H287c-19.773,0-19.854-30,0-30h150C456.773,211,456.854,241,437,241z"/>
</g>
<g>
	<path style="fill:#B7E0F6;" d="M407,181h-90c-19.773,0-19.854-30,0-30h90C426.773,151,426.854,181,407,181z"/>
	<path style="fill:#B7E0F6;" d="M150,241V121c32.999,0,60,27.001,60,60S182.999,241,150,241z"/>
	<path style="fill:#B7E0F6;" d="M240,331v15c0,24.901-20.098,45-45,45h-45V241C199.501,241,240,281.499,240,331z"/>
</g>
<g>
</g>
<g>
</g>
<g>
</g>
<g>
</g>
<g>
</g>
<g>
</g>
<g>
</g>
<g>
</g>
<g>
</g>
<g>
</g>
<g>
</g>
<g>
</g>
<g>
</g>
<g>
</g>
<g>
</g>
</svg>
