<?xml version="1.0" encoding="iso-8859-1"?>
<!-- Generator: Adobe Illustrator 19.0.0, SVG Export Plug-In . SVG Version: 6.00 Build 0)  -->
<svg version="1.1" id="Capa_1" xmlns="http://www.w3.org/2000/svg" xmlns:xlink="http://www.w3.org/1999/xlink" x="0px" y="0px"
	 viewBox="0 0 512 512" style="enable-background:new 0 0 512 512;" xml:space="preserve">
<path style="fill:#1DE8F1;" d="M18.707,351.947c-24.935-61.483-24.95-130.376,0-191.895c7.356-18.355,35.28-7.102,27.773,11.279
	c-21.637,53.366-22.834,113.016,0,169.336C53.995,359.069,26.09,370.314,18.707,351.947z"/>
<g>
	<path style="fill:#1BD9DE;" d="M465.52,340.668c21.637-53.366,22.834-113.016,0-169.336c-7.522-18.419,20.445-29.601,27.773-11.279
		c24.935,61.483,24.95,130.376,0,191.895C485.879,370.389,457.974,359.145,465.52,340.668z"/>
	<path style="fill:#1BD9DE;" d="M409.827,318.139c16.118-39.881,16.628-83.133,0-124.277c-7.383-18.248,20.31-29.704,27.832-11.25
		c18.646,46.211,19.347,98.83,0,146.777C430.16,347.812,402.336,336.653,409.827,318.139z"/>
</g>
<path style="fill:#1DE8F1;" d="M74.341,329.389c-18.646-46.211-19.347-98.83,0-146.777c7.507-18.416,35.23-7.035,27.832,11.25
	c-16.118,39.881-16.628,83.133,0,124.277C109.618,336.54,81.825,347.774,74.341,329.389z"/>
<path style="fill:#CAE8F9;" d="M376.985,121h-241.97c-8.401,0-15,6.599-15,15v240c0,8.399,6.599,15,15,15h241.969
	c8.401,0,15-6.601,15-15V136C391.985,127.599,385.386,121,376.985,121z"/>
<path style="fill:#17ACE8;" d="M120.015,361v45c0,24.899,20.098,45,45,45h181.969c24.902,0,45-20.101,45-45v-45H120.015z"/>
<path style="fill:#B7E0F6;" d="M391.985,136v240c0,8.399-6.599,15-15,15h-120V121h120C385.386,121,391.985,127.599,391.985,136z"/>
<path style="fill:#17ACE8;" d="M346.985,61h-181.97c-24.902,0-45,20.099-45,45v45h271.969v-45C391.985,81.099,371.887,61,346.985,61
	z"/>
<g>
	<path style="fill:#1689FC;" d="M391.985,106v45h-135V61h90C371.887,61,391.985,81.099,391.985,106z"/>
	<path style="fill:#1689FC;" d="M256.985,361h135v45c0,24.899-20.098,45-45,45h-90V361z"/>
</g>
<g>
</g>
<g>
</g>
<g>
</g>
<g>
</g>
<g>
</g>
<g>
</g>
<g>
</g>
<g>
</g>
<g>
</g>
<g>
</g>
<g>
</g>
<g>
</g>
<g>
</g>
<g>
</g>
<g>
</g>
</svg>
