<?xml version="1.0" encoding="iso-8859-1"?>
<!-- Generator: Adobe Illustrator 19.0.0, SVG Export Plug-In . SVG Version: 6.00 Build 0)  -->
<svg version="1.1" id="Capa_1" xmlns="http://www.w3.org/2000/svg" xmlns:xlink="http://www.w3.org/1999/xlink" x="0px" y="0px"
	 viewBox="0 0 512 512" style="enable-background:new 0 0 512 512;" xml:space="preserve">
<path style="fill:#CAE8F9;" d="M421,60H91c-8.401,0-15,6.599-15,15v332c0,8.401,6.599,15,15,15h330c8.401,0,15-6.599,15-15V75
	C436,66.599,429.401,60,421,60z"/>
<path style="fill:#B7E0F6;" d="M436,75v332c0,8.401-6.599,15-15,15H256V60h165C429.401,60,436,66.599,436,75z"/>
<g>
	<path style="fill:#1DE8F1;" d="M166,270c-16.553,0-30-13.462-30-30s13.447-30,30-30s30,13.462,30,30S182.553,270,166,270z"/>
	<path style="fill:#1DE8F1;" d="M256,210c-16.501,0-30,13.5-30,30s13.499,30,30,30s30-13.5,30-30S272.501,210,256,210z"/>
</g>
<g>
	<path style="fill:#1BD9DE;" d="M346,270c-16.553,0-30-13.462-30-30s13.447-30,30-30s30,13.462,30,30S362.553,270,346,270z"/>
	<path style="fill:#1BD9DE;" d="M256,270v-60c16.501,0,30,13.5,30,30S272.501,270,256,270z"/>
</g>
<path style="fill:#1689FC;" d="M76,392v75c0,24.901,20.098,45,45,45h270c24.902,0,45-20.099,45-45v-75H76z"/>
<path style="fill:#136EF1;" d="M256,392h180v75c0,24.901-20.098,45-45,45H256V392z"/>
<path style="fill:#1689FC;" d="M391,0H121C96.098,0,76,20.099,76,45v45h360V45C436,20.099,415.902,0,391,0z"/>
<path style="fill:#136EF1;" d="M436,45v45H256V0h135C415.902,0,436,20.099,436,45z"/>
<g>
</g>
<g>
</g>
<g>
</g>
<g>
</g>
<g>
</g>
<g>
</g>
<g>
</g>
<g>
</g>
<g>
</g>
<g>
</g>
<g>
</g>
<g>
</g>
<g>
</g>
<g>
</g>
<g>
</g>
</svg>
