<?xml version="1.0" encoding="iso-8859-1"?>
<!-- Generator: Adobe Illustrator 19.0.0, SVG Export Plug-In . SVG Version: 6.00 Build 0)  -->
<svg version="1.1" id="Capa_1" xmlns="http://www.w3.org/2000/svg" xmlns:xlink="http://www.w3.org/1999/xlink" x="0px" y="0px"
	 viewBox="0 0 511.998 511.998" style="enable-background:new 0 0 511.998 511.998;" xml:space="preserve">
<g>
	<path style="fill:#B7E0F6;" d="M346.531,90.043c0,0-132.674-43.436-176.785-58.257c-0.536-0.18-2.493-0.425-4.746-0.425l-30,33.404
		v329.058l30,28.343l0.48-0.192l176.686,58.229c0.586,0.205,1.172,0.366,1.787,0.498c0,0,0,0,0.029,0
		c0.996,0.205,2.021,0.308,3.018,0.308l30-29.079V121.949l-30-32.093L346.531,90.043z"/>
	<path style="fill:#B7E0F6;" d="M159.434,32.08c-37.431,15.172-150,60-150,60C3.721,94.365,0,99.872,0,106.01v360
		c0,10.676,10.829,17.842,20.566,13.931L165,422.167V31.362C162.476,31.362,159.947,31.871,159.434,32.08z"/>
</g>
<path style="fill:#CAE8F9;" d="M491.434,32.08L347,89.857v391.154c0.059,0,0.146,0,0.234,0h0.029c0,0,0,0,0.029,0
	c1.436-0.029,2.871-0.264,4.277-0.718c0,0,0,0,0.029,0l0.029-0.015c0.352-0.117,0.674-0.234,0.996-0.366l149.941-59.971
	c5.713-2.285,9.434-7.793,9.434-13.931v-360C512,35.281,501.069,28.121,491.434,32.08z"/>
<polygon style="fill:#1689FC;" points="165,62.164 165,390.201 346.385,450.102 347,449.857 347,121.821 165.469,61.977 "/>
<g>
	<polygon style="fill:#17ACE8;" points="165,62.164 30,116.162 30,443.862 164.443,390.014 165,390.201 	"/>
	<polygon style="fill:#17ACE8;" points="347.557,122.006 347,121.821 347,449.857 482,395.859 482,68.159 	"/>
</g>
<path style="fill:#FEDB41;" d="M60.762,311.264l4.746-14.224c6.263-18.684,34.738-9.362,28.477,9.492l-4.746,14.224
	C82.888,339.674,54.498,330.125,60.762,311.264z"/>
<path style="fill:#FFCC33;" d="M329.51,311.513c-11.484-0.996-22.559-3.823-32.9-8.423c-18.157-8.093-5.896-35.482,12.188-27.422
	c7.295,3.252,15.146,5.259,23.291,5.962C352.084,283.368,348.901,313.452,329.51,311.513z"/>
<path style="fill:#FEDB41;" d="M378.26,270.41c6.768-4.365,12.656-9.8,17.549-16.172c11.969-15.691,35.89,2.458,23.789,18.252
	c-6.973,9.111-15.41,16.89-25.049,23.115C377.71,306.472,361.778,281.05,378.26,270.41z"/>
<path style="fill:#FFCC33;" d="M247.889,256.86c-4.179-8.594-6.594-14.123-13.184-21.826
	c-12.967-15.152,10.053-34.485,22.793-19.482c8.627,10.086,11.961,17.074,17.109,27.656
	C283.705,260.943,256.871,274.381,247.889,256.86z"/>
<g>
	<path style="fill:#FEDB41;" d="M84.873,240.497c4.746-10.576,11.074-20.112,18.809-28.345c13.709-14.482,35.36,6.227,21.855,20.566
		c-5.449,5.771-9.902,12.51-13.242,20.024C104.067,270.921,76.796,258.653,84.873,240.497z"/>
	<path style="fill:#FEDB41;" d="M194.502,211.918c-0.908,0-1.816-0.073-2.754-0.249c-5.47-1.012-15.623-1.696-24.141-0.469
		c-19.183,3.138-24.254-26.788-4.277-29.678c11.181-1.644,22.751-1.391,33.867,0.645
		C215.125,185.456,212.506,211.918,194.502,211.918z"/>
</g>
<path style="fill:#FFCC33;" d="M197.197,182.167c-10.569-1.935-21.533-2.135-32.197-0.749v29.68c0.886,0.002,1.648,0.26,2.607,0.103
	c8.518-1.227,18.669-0.544,24.141,0.469c0.938,0.176,1.846,0.249,2.754,0.249C212.505,211.918,215.127,185.456,197.197,182.167z"/>
<path style="fill:#FEDB41;" d="M417.693,204.785l5.273-14.048c6.926-18.539,35.082-8.045,28.066,10.547l-5.273,14.048
	C438.78,233.96,410.641,223.473,417.693,204.785z"/>
<g>
</g>
<g>
</g>
<g>
</g>
<g>
</g>
<g>
</g>
<g>
</g>
<g>
</g>
<g>
</g>
<g>
</g>
<g>
</g>
<g>
</g>
<g>
</g>
<g>
</g>
<g>
</g>
<g>
</g>
</svg>
