<?xml version="1.0" encoding="iso-8859-1"?>
<!-- Generator: Adobe Illustrator 19.0.0, SVG Export Plug-In . SVG Version: 6.00 Build 0)  -->
<svg version="1.1" id="Capa_1" xmlns="http://www.w3.org/2000/svg" xmlns:xlink="http://www.w3.org/1999/xlink" x="0px" y="0px"
	 viewBox="0 0 511.999 511.999" style="enable-background:new 0 0 511.999 511.999;" xml:space="preserve">
<path style="fill:#1DE8F1;" d="M437.151,228.499c0,116.4-95.903,210.601-212.003,210.901c-0.3,0-0.3,0-0.601,0
	c-116.4,0-210.901-94.2-210.901-210.901c0-116.4,94.501-212.898,210.901-212.898c0.3,0,0.3,0,0.601,0
	C341.248,15.901,437.151,112.399,437.151,228.499z"/>
<path style="fill:#1BD9DE;" d="M437.151,228.499c0,116.4-95.903,210.601-212.003,210.901V15.601
	C341.248,15.901,437.151,112.399,437.151,228.499z"/>
<path style="fill:#17ACE8;" d="M225.148,0c-124.2,0-225,102.799-225,226.999s100.8,225,225,225
	c121.201,0,223.703-98.401,226.703-219.6v-5.4C451.851,102.799,349.349,0,225.148,0z M152.851,44.399
	c-14.103,19.801-25.803,45-33.904,74.401c-29.7,8.399-55.199,20.099-75,34.199C63.748,103.5,103.347,64.2,152.851,44.399z
	 M111.447,152.401c-3.3,17.999-5.098,39.499-5.999,59.599h-72.3C42.149,189.8,69.75,166.5,111.447,152.401z M105.449,241.999
	c0.901,20.099,2.699,39.6,5.999,57.599c-41.697-14.099-69.298-35.4-78.3-57.599H105.449z M43.947,299
	c19.801,14.099,45.3,25.8,75,34.199c8.101,29.401,19.801,54.6,33.904,74.401C103.347,387.799,63.748,348.499,43.947,299z
	 M210.148,418.7c-22.2-8.701-43.499-36.601-57.598-78.001c17.996,3.301,37.5,5.101,57.598,5.7V418.7L210.148,418.7z
	 M210.148,316.699c-24.001-0.899-46.501-3.6-66.599-8.101c-4.501-20.099-7.2-42.599-8.101-66.599h74.7V316.699z M210.148,211.999
	h-74.7c0.901-24,3.6-48.499,8.101-68.598c20.098-4.501,42.598-7.202,66.599-8.101V211.999z M210.148,105.601
	c-20.098,0.599-39.602,2.399-57.598,5.7c14.099-41.4,35.398-69.3,57.598-78.001V105.601L210.148,105.601z M408.052,152.999
	c-19.801-14.099-45.3-25.8-75-34.199c-8.101-29.401-19.801-54.6-33.904-74.401C348.653,64.2,388.251,103.5,408.052,152.999z
	 M418.852,211.999h-72.301c-0.901-20.099-2.699-41.599-5.999-59.599C382.249,166.5,409.85,189.8,418.852,211.999z M240.148,33.3
	c22.2,8.701,45.201,36.601,59.3,78.001c-17.996-3.301-39.203-5.101-59.3-5.7V33.3z M240.148,135.3
	c24.001,0.899,48.204,3.6,68.302,8.101c4.501,20.099,7.2,44.599,8.101,68.598h-76.402V135.3H240.148z M240.148,418.7v-72.601
	c19.797-0.599,40.704-2.699,59.3-5.999C285.349,381.2,262.648,409.7,240.148,418.7z M299.148,407.9
	c13.502-18.9,24.902-43.2,33.303-72.301l-13.198-3.9l-5.702-24.3c-22.5,5.099-48.501,7.8-73.403,8.699v-74.099h75.802
	c-0.3,9.3-0.3,18.3-1.201,27.299l29.7,3.301c1.201-10.201,1.201-20.4,1.501-30.601h75
	C415.252,316.999,366.051,380.599,299.148,407.9z"/>
<path style="fill:#1689FC;" d="M225.148,0v451.999c121.201,0,223.703-98.401,226.703-219.6v-5.4
	C451.851,102.799,349.349,0,225.148,0z M408.052,152.999c-19.801-14.099-45.3-25.8-75-34.199
	c-8.101-29.401-19.801-54.6-33.904-74.401C348.653,64.2,388.251,103.5,408.052,152.999z M418.852,211.999h-72.301
	c-0.901-20.099-2.699-41.599-5.999-59.599C382.249,166.5,409.85,189.8,418.852,211.999z M240.148,33.3
	c22.2,8.701,45.201,36.601,59.3,78.001c-17.996-3.301-39.203-5.101-59.3-5.7V33.3z M240.148,135.3
	c24.001,0.899,48.204,3.6,68.302,8.101c4.501,20.099,7.2,44.599,8.101,68.598h-76.402V135.3H240.148z M240.148,418.7v-72.601
	c19.797-0.599,40.704-2.699,59.3-5.999C285.349,381.2,262.648,409.7,240.148,418.7z M299.148,407.9
	c13.502-18.9,24.902-43.2,33.303-72.301l-13.198-3.9l-5.702-24.3c-22.5,5.099-48.501,7.8-73.403,8.699v-74.099h75.802
	c-0.3,9.3-0.3,18.3-1.201,27.299l29.7,3.301c1.201-10.201,1.201-20.4,1.501-30.601h75
	C415.252,316.999,366.051,380.599,299.148,407.9z"/>
<path style="fill:#FFCC33;" d="M406.851,211.999c-57.898,0-105,47.1-105,105c0,18.6,5.098,37.2,14.399,53.101l77.703,134.399
	c2.695,4.501,7.5,7.5,12.898,7.5s10.203-2.999,12.898-7.5L499.554,366.5c8.097-15,12.297-32.401,12.297-49.501
	C511.851,259.099,464.749,211.999,406.851,211.999z M406.851,361.999c-24.902,0-45-20.099-45-45s20.098-45,45-45s45,20.099,45,45
	S431.753,361.999,406.851,361.999z"/>
<path style="fill:#FEA832;" d="M406.851,211.999v60c24.902,0,45,20.099,45,45s-20.098,45-45,45v150c5.398,0,10.203-2.999,12.898-7.5
	L499.554,366.5c8.097-15,12.297-32.401,12.297-49.501C511.851,259.099,464.749,211.999,406.851,211.999z"/>
<g>
</g>
<g>
</g>
<g>
</g>
<g>
</g>
<g>
</g>
<g>
</g>
<g>
</g>
<g>
</g>
<g>
</g>
<g>
</g>
<g>
</g>
<g>
</g>
<g>
</g>
<g>
</g>
<g>
</g>
</svg>
