<?xml version="1.0" encoding="iso-8859-1"?>
<!-- Generator: Adobe Illustrator 19.0.0, SVG Export Plug-In . SVG Version: 6.00 Build 0)  -->
<svg version="1.1" id="Capa_1" xmlns="http://www.w3.org/2000/svg" xmlns:xlink="http://www.w3.org/1999/xlink" x="0px" y="0px"
	 viewBox="0 0 512 512" style="enable-background:new 0 0 512 512;" xml:space="preserve">
<path style="fill:#1689FC;" d="M421.399,120c33.6,0,60.601,27.001,60.601,60.601V413.9c0,12.601-10.499,23.1-23.101,23.1H49.2
	c-10.8,0-19.2-8.401-19.2-19.2V165c0-24.901,20.098-45,45-45H421.399z"/>
<path style="fill:#136EF1;" d="M421.399,120c33.6,0,60.601,27.001,60.601,60.601V413.9c0,12.601-10.499,23.1-23.101,23.1H257V120
	H421.399z"/>
<path style="fill:#CAE8F9;" d="M423.802,150H75c-8.401,0-15,6.599-15,15v272h392V178.2C452,162.599,439.402,150,423.802,150z"/>
<path style="fill:#B7E0F6;" d="M452,178.2V437H257V150h166.802C439.402,150,452,162.599,452,178.2z"/>
<path style="fill:#1689FC;" d="M497,392H347c-8.401,0-15,6.599-15,15v15H182v-15c0-8.401-6.599-15-15-15H15c-8.401,0-15,6.599-15,15
	v30c0,41.4,33.6,75,75,75h362c41.4,0,75-33.6,75-75v-30C512,398.599,505.401,392,497,392z"/>
<path style="fill:#136EF1;" d="M512,407v30c0,41.4-33.6,75-75,75H257v-90h75v-15c0-8.401,6.599-15,15-15h150
	C505.401,392,512,398.599,512,407z"/>
<path style="fill:#FE9923;" d="M512,45c0-12.407-5.046-23.657-13.195-31.805l-25.914,7.456
	c-10.628,3.058-20.306,8.764-28.126,16.585l-57.217,57.217c-3.649,3.649-5.293,8.846-4.407,13.93s4.191,9.418,8.859,11.618
	c-4.593,2.45-7.753,6.93-8.519,12.079c-0.766,5.148,0.953,10.355,4.633,14.036l60.463,60.463
	c12.316,12.316,31.747,15.211,50.228,20.228C506.954,218.657,512,207.407,512,195V45z"/>
<path style="fill:#FEA832;" d="M302,120c7.8,9,7.5,22.5-0.901,30.901L254.898,197.1c-17.996,17.999-35.098,21.599-59.7,29.7
	C187.098,218.699,182,207.299,182,195V45c0-12.299,5.098-23.699,13.198-31.8l19.204,5.7c15.3,4.2,28.799,12.299,39.895,23.399
	L305.6,93.6C313.4,101.4,311.602,114.6,302,120z"/>
<path style="fill:#FFCC33;" d="M498.802,226.8C490.701,234.901,479.297,240,467,240H227c-12.297,0-23.701-5.099-31.802-13.2L302,120
	l23.701-6.301c11.697,11.7,30.901,11.7,42.598,0L392,120L498.802,226.8z"/>
<path style="fill:#FEDB41;" d="M498.802,13.2L368.299,143.699c-11.697,11.7-30.901,11.7-42.598,0L195.198,13.2
	C203.299,5.099,214.703,0,227,0h240C479.297,0,490.701,5.099,498.802,13.2z"/>
<g>
</g>
<g>
</g>
<g>
</g>
<g>
</g>
<g>
</g>
<g>
</g>
<g>
</g>
<g>
</g>
<g>
</g>
<g>
</g>
<g>
</g>
<g>
</g>
<g>
</g>
<g>
</g>
<g>
</g>
</svg>
