<?xml version="1.0" encoding="iso-8859-1"?>
<!-- Generator: Adobe Illustrator 19.0.0, SVG Export Plug-In . SVG Version: 6.00 Build 0)  -->
<svg version="1.1" id="Capa_1" xmlns="http://www.w3.org/2000/svg" xmlns:xlink="http://www.w3.org/1999/xlink" x="0px" y="0px"
	 viewBox="0 0 512 512" style="enable-background:new 0 0 512 512;" xml:space="preserve">
<path style="fill:#B758CE;" d="M467,150.946H165c-8.401,0-15,6.599-15,15v210c0,19.499,12.598,36.299,30,42.299
	c4.797,1.8,9.602,2.701,15,2.701h147.499l86.1,57.599c9.902,6.601,23.401-0.601,23.401-12.599v-45h15c24.902,0,45-20.101,45-45v-180
	C512,171.046,491.902,150.946,467,150.946z"/>
<path style="fill:#AA3DC8;" d="M512,195.946v180c0,24.899-20.098,45-45,45h-15v45c0,11.999-13.499,19.2-23.401,12.599l-86.1-57.599
	H195c-5.398,0-10.203-0.901-15-2.701V150.946h287C491.902,150.946,512,171.046,512,195.946z"/>
<path style="fill:#FEDB41;" d="M348.802,44.146c-8.101-8.101-19.504-13.2-31.802-13.2H45c-12.297,0-23.701,5.099-31.802,13.2
	C5.098,52.245,0,63.645,0,75.946v180c0,12.299,5.098,23.699,13.198,31.8c8.101,8.099,19.504,13.2,31.802,13.2h15v45
	c0,6,3.3,10.8,7.8,13.2c4.797,2.399,10.499,2.699,15.601-0.601l42.898-28.801l43.202-28.799H317c12.297,0,23.701-5.101,31.802-13.2
	c8.101-8.101,13.198-19.501,13.198-31.8v-180C362,63.645,356.902,52.245,348.802,44.146z"/>
<path style="fill:#FFCC33;" d="M362,75.946v180c0,12.299-5.098,23.699-13.198,31.8c-8.101,8.099-19.504,13.2-31.802,13.2H180v-270
	h137c12.297,0,23.701,5.099,31.802,13.2C356.902,52.245,362,63.645,362,75.946z"/>
<g>
	<path style="fill:#994C0F;" d="M195,210.946H75c-19.797,0-19.797-30,0-30h120C214.797,180.946,214.797,210.946,195,210.946z"/>
	<path style="fill:#994C0F;" d="M287,150.946H75c-19.797,0-19.797-30,0-30h212C306.797,120.946,306.797,150.946,287,150.946z"/>
</g>
<g>
	<path style="fill:#713708;" d="M195,210.946h-15v-30h15C214.797,180.946,214.797,210.946,195,210.946z"/>
	<path style="fill:#713708;" d="M287,150.946H180v-30h107C306.797,120.946,306.797,150.946,287,150.946z"/>
</g>
<g>
</g>
<g>
</g>
<g>
</g>
<g>
</g>
<g>
</g>
<g>
</g>
<g>
</g>
<g>
</g>
<g>
</g>
<g>
</g>
<g>
</g>
<g>
</g>
<g>
</g>
<g>
</g>
<g>
</g>
</svg>
