<?xml version="1.0" encoding="iso-8859-1"?>
<!-- Generator: Adobe Illustrator 19.0.0, SVG Export Plug-In . SVG Version: 6.00 Build 0)  -->
<svg version="1.1" id="Capa_1" xmlns="http://www.w3.org/2000/svg" xmlns:xlink="http://www.w3.org/1999/xlink" x="0px" y="0px"
	 viewBox="0 0 512.001 512.001" style="enable-background:new 0 0 512.001 512.001;" xml:space="preserve">
<path style="fill:#1689FC;" d="M346.023,88.994c-3.301-0.899-6.601-3.301-8.703-7.802c-16.802-35.409-54.612-55.513-93.619-50.413
	c-44.414,5.701-77.722,45.912-77.722,93.623v130.534c0,99.025-150.038,99.025-150.038,0V14.876c0-19.806,30.008-19.806,30.008,0
	v240.06c0,59.414,90.023,59.414,90.023,0V124.403c0-62.715,44.711-115.528,103.825-123.331c40.513-5.401,80.121,9.903,106.228,39.31
	c7.202,8.403,13.502,17.705,18.305,28.207C370.931,82.093,356.826,92.895,346.023,88.994z"/>
<path style="fill:#B758CE;" d="M466.053,209.925c0,28.507-49.212,60.015-120.03,60.015s-120.03-31.508-120.03-60.015
	c0-19.806-30.008-19.806-30.008,0v167.042c0,74.418,60.616,135.034,135.034,135.034h30.008c74.418,0,135.034-60.616,135.034-135.034
	V209.925C496.06,190.119,466.053,190.119,466.053,209.925z"/>
<path style="fill:#AA3DC8;" d="M496.06,209.925v167.042c0,74.418-60.616,135.034-135.034,135.034h-15.004V269.94
	c70.818,0,120.03-31.508,120.03-60.015C466.053,190.119,496.06,190.119,496.06,209.925z"/>
<path style="fill:#CAE8F9;" d="M361.027,59.888h-30.008c-74.418,0-135.034,60.614-135.034,135.034v15.004
	c0,50.413,66.015,90.023,150.038,90.023s150.038-39.61,150.038-90.023v-15.004C496.06,120.502,435.445,59.888,361.027,59.888z"/>
<path style="fill:#B7E0F6;" d="M496.06,194.921v15.004c0,50.413-66.016,90.023-150.038,90.023V59.888h15.004
	C435.445,59.888,496.06,120.502,496.06,194.921z"/>
<path style="fill:#B758CE;" d="M346.023,119.903c-24.908,0-45.011,20.104-45.011,45.011v30.007
	c0,24.905,20.103,45.011,45.011,45.011s45.011-20.106,45.011-45.011v-30.007C391.034,140.008,370.931,119.903,346.023,119.903z"/>
<path style="fill:#AA3DC8;" d="M346.023,239.933v-120.03c24.908,0,45.011,20.104,45.011,45.011v30.007
	C391.034,219.827,370.931,239.933,346.023,239.933z"/>
<g>
</g>
<g>
</g>
<g>
</g>
<g>
</g>
<g>
</g>
<g>
</g>
<g>
</g>
<g>
</g>
<g>
</g>
<g>
</g>
<g>
</g>
<g>
</g>
<g>
</g>
<g>
</g>
<g>
</g>
</svg>
