<?xml version="1.0" encoding="iso-8859-1"?>
<!-- Generator: Adobe Illustrator 19.0.0, SVG Export Plug-In . SVG Version: 6.00 Build 0)  -->
<svg version="1.1" id="Capa_1" xmlns="http://www.w3.org/2000/svg" xmlns:xlink="http://www.w3.org/1999/xlink" x="0px" y="0px"
	 viewBox="0 0 512 512" style="enable-background:new 0 0 512 512;" xml:space="preserve">
<path style="fill:#136EF1;" d="M473.688,377.937l-63.6-63.6c-16.798-17.098-46.498-17.098-63.3,0l-10.499,10.801l-10.8,10.499
	c-5.999,5.7-5.999,15.3,0,21L431.69,462.836c5.184,5.772,15.059,6.236,21.299,0l10.199-10.499l10.499-10.8
	C491.39,424.138,491.39,395.337,473.688,377.937z"/>
<path style="fill:#1689FC;" d="M197.989,101.7l-63.604-63.6C117.587,21,87.587,21,70.489,38.1L60.287,48.6L49.491,59.4
	c-5.352,5.92-5.405,15.601,0.297,21l105.901,105.899c5.702,6,15.3,6,21.002,0L197.989,165
	C215.688,147.599,215.688,119.099,197.989,101.7z"/>
<path style="fill:#FEDB41;" d="M498.59,13.2C490.489,5.099,479.386,0,466.788,0h-180c-24.902,0-45,20.099-45,45v120
	c0,24.899,20.098,45,45,45h15v45c0,13.5,16.201,20.099,25.499,10.499l55.8-55.499h83.701c24.902,0,45-20.101,45-45V45
	C511.788,32.401,506.691,21.301,498.59,13.2z"/>
<path style="fill:#FCBF29;" d="M511.788,45v120c0,24.899-20.098,45-45,45h-83.701l-55.8,55.499
	c-9.298,9.6-25.499,3.001-25.499-10.499v-45L498.59,13.2C506.691,21.301,511.788,32.401,511.788,45z"/>
<g>
	<path style="fill:#1689FC;" d="M436.788,90h-120c-19.797,0-19.797-30,0-30h120c4.797,0,8.401,1.8,10.8,4.501
		C455.388,72.599,451.788,90,436.788,90z"/>
	<path style="fill:#1689FC;" d="M376.788,150h-60c-19.797,0-19.797-30,0-30h60c4.797,0,8.401,1.8,10.8,4.499
		C395.388,132.599,391.788,150,376.788,150z"/>
</g>
<path style="fill:#17ACE8;" d="M463.188,452.338l-10.199,10.499l-3.003,2.701c-62.399,61.8-165.901,62.399-228.596-0.901
	L134.386,377.1l-86.697-86.7c-63.166-62.864-63.303-165.454-0.412-228.787c0.174-0.175,13.01-13.013,13.01-13.013l126.899,126.899
	l-5.999,6.301l-4.497,4.499l-7.2,7.8c-13.802,13.801-13.202,35.101-0.3,48.3l50.098,50.101l50.098,50.638
	c12.902,12.9,35.402,12.9,48.303,0l7.8-7.5l10.8-10.499L463.188,452.338z"/>
<path style="fill:#1689FC;" d="M336.289,325.138l126.899,127.2l-10.199,10.499l-3.003,2.701
	c-62.399,61.8-165.901,62.399-228.596-0.901L134.386,377.1c0.3,0,0.3,0,0.3,0l84.602-84.6l50.098,50.638
	c12.902,12.9,35.402,12.9,48.303,0l7.8-7.5L336.289,325.138z"/>
<g>
</g>
<g>
</g>
<g>
</g>
<g>
</g>
<g>
</g>
<g>
</g>
<g>
</g>
<g>
</g>
<g>
</g>
<g>
</g>
<g>
</g>
<g>
</g>
<g>
</g>
<g>
</g>
<g>
</g>
</svg>
