<?xml version="1.0" encoding="iso-8859-1"?>
<!-- Generator: Adobe Illustrator 19.0.0, SVG Export Plug-In . SVG Version: 6.00 Build 0)  -->
<svg version="1.1" id="Capa_1" xmlns="http://www.w3.org/2000/svg" xmlns:xlink="http://www.w3.org/1999/xlink" x="0px" y="0px"
	 viewBox="0 0 512 512" style="enable-background:new 0 0 512 512;" xml:space="preserve">
<path style="fill:#FD003A;" d="M481.172,29.7c-39.598-39.6-108.596-39.6-148.198,0L180.788,183.238
	c-10.803,10.8-0.901,25.8,10.8,25.8c3.3,0,6.899-1.5,10.199-4.801c22.5-22.2,56.7-28.2,85.503-14.7
	c5.698,2.701,12.297,1.5,16.798-2.999L396.277,93c6.899-6.899,15.897-5.099,21.299,0.3c5.398,5.4,7.2,14.399,0.3,21.299
	L265.687,268.136c-5.702,5.4-15.897,5.4-21.599,0c-5.702-6-5.702-15.599,0-21.599c6.002-5.7,6.002-15.3,0-21
	c-5.702-6-15.3-6-21.002,0l-60,60c-4.797,4.501-5.698,11.4-2.996,17.1c5.698,11.4,12.598,21,20.698,28.799
	c40.499,41.102,107.399,41.102,148.198,0L481.172,177.9C522.276,137.099,522.276,70.5,481.172,29.7z"/>
<path style="fill:#FFCC33;" d="M192.485,341.336l-75.3,75.3c-6.899,6.899-15.897,5.099-21.299-0.3c-5.398-5.4-7.2-14.399-0.3-21.299
	l148.502-148.5c5.702-5.4,15.897-5.4,21.599,0c5.702,6,5.702,15.599,0,21.599l73.202-73.2c-3.003-4.199-6.299-8.099-9.902-11.699
	c-3.6-3.602-7.5-6.901-11.697-9.901c-40.803-30.601-99.302-27.599-136.501,9.901c-0.901,0.899-1.501,1.8-2.102,2.399L32.29,331.736
	c-49.204,48.9-36.603,110.4,0.597,147.601c37.203,36.899,98.701,49.499,147.601,0.599l148.499-148.5
	C291.787,368.936,233.288,372.237,192.485,341.336z"/>
<path style="fill:#FE9923;" d="M265.687,268.136l73.202-73.2c-3.003-4.199-6.299-8.099-9.902-11.699l-63.3,63.3
	C271.389,252.538,271.389,262.136,265.687,268.136z"/>
<path style="fill:#FEA832;" d="M328.987,331.436C305.789,354.821,297,292,297,292s-89.157,60.967-104.515,49.336l-75.3,75.3
	c-6.899,6.899-15.894,5.099-21.299-0.3l-62.999,63.001c37.203,36.899,98.701,49.499,147.601,0.599L328.987,331.436z"/>
<path style="fill:#E50027;" d="M481.172,29.702L417.576,93.3l0,0c5.398,5.4,7.2,14.399,0.3,21.299L265.687,268.136
	c-5.702,5.4-15.897,5.4-21.599,0l-63.3,63.3c40.499,41.102,107.399,41.102,148.198,0L481.172,177.9
	C522.276,137.099,522.276,70.502,481.172,29.702z"/>
<g>
</g>
<g>
</g>
<g>
</g>
<g>
</g>
<g>
</g>
<g>
</g>
<g>
</g>
<g>
</g>
<g>
</g>
<g>
</g>
<g>
</g>
<g>
</g>
<g>
</g>
<g>
</g>
<g>
</g>
</svg>
