<?xml version="1.0" encoding="iso-8859-1"?>
<!-- Generator: Adobe Illustrator 19.0.0, SVG Export Plug-In . SVG Version: 6.00 Build 0)  -->
<svg version="1.1" id="Capa_1" xmlns="http://www.w3.org/2000/svg" xmlns:xlink="http://www.w3.org/1999/xlink" x="0px" y="0px"
	 viewBox="0 0 512 512" style="enable-background:new 0 0 512 512;" xml:space="preserve">
<path style="fill:#B758CE;" d="M257,16C116.302,16,0,116.8,0,241c0,52.5,20.698,103.2,58.499,143.399
	c7.5,30.901-1.498,63.6-23.998,86.1C24.902,479.799,31.501,496,45,496c42.598,0,84.001-16.8,114.602-46.201
	C189.902,460.6,224.001,466,257,466c140.698,0,255-100.8,255-225S397.698,16,257,16z"/>
<path style="fill:#AA3DC8;" d="M512,241c0,124.2-114.302,225-255,225V16C397.698,16,512,116.8,512,241z"/>
<g>
	<path style="fill:#CAE8F9;" d="M135,286c-24.814,0-45-20.186-45-45s20.186-45,45-45s45,20.186,45,45S159.814,286,135,286z"/>
	<path style="fill:#CAE8F9;" d="M257,196c-24.902,0-45,20.099-45,45c0,24.899,20.098,45,45,45s45-20.101,45-45
		C302,216.099,281.902,196,257,196z"/>
</g>
<g>
	<path style="fill:#B7E0F6;" d="M377,286c-24.814,0-45-20.186-45-45s20.186-45,45-45s45,20.186,45,45S401.814,286,377,286z"/>
	<path style="fill:#B7E0F6;" d="M302,241c0,24.899-20.098,45-45,45v-90C281.902,196,302,216.099,302,241z"/>
</g>
<g>
</g>
<g>
</g>
<g>
</g>
<g>
</g>
<g>
</g>
<g>
</g>
<g>
</g>
<g>
</g>
<g>
</g>
<g>
</g>
<g>
</g>
<g>
</g>
<g>
</g>
<g>
</g>
<g>
</g>
</svg>
