<?xml version="1.0" encoding="iso-8859-1"?>
<!-- Generator: Adobe Illustrator 19.0.0, SVG Export Plug-In . SVG Version: 6.00 Build 0)  -->
<svg version="1.1" id="Capa_1" xmlns="http://www.w3.org/2000/svg" xmlns:xlink="http://www.w3.org/1999/xlink" x="0px" y="0px"
	 viewBox="0 0 512 512" style="enable-background:new 0 0 512 512;" xml:space="preserve">
<path style="fill:#1689FC;" d="M120,165c0,8.291-6.709,15-15,15H45c-8.291,0-15-6.709-15-15v-30c0-24.814,20.186-45,45-45h30
	c8.291,0,15,6.709,15,15V165z"/>
<path style="fill:#136EF1;" d="M482,165c0,8.291-6.709,15-15,15h-60c-8.291,0-15-6.709-15-15v-60c0-8.291,6.709-15,15-15h30
	c24.814,0,45,20.186,45,45V165z"/>
<path style="fill:#CAE8F9;" d="M407,90h-75V15c0-8.401-6.599-15-15-15H105c-8.401,0-15,6.599-15,15v150c0,8.399,6.599,15,15,15h302
	c8.401,0,15-6.601,15-15v-60C422,96.599,415.401,90,407,90z"/>
<path style="fill:#B7E0F6;" d="M407,180H257V0h60c8.401,0,15,6.599,15,15v75h75c8.401,0,15,6.599,15,15v60
	C422,173.399,415.401,180,407,180z"/>
<path style="fill:#CAE8F9;" d="M422,120H317c-8.291,0-15-6.709-15-15V0h32.695c11.777,0,23.32,4.775,31.641,13.11l42.568,42.583
	C417.225,64.043,422,75.557,422,87.305V120z"/>
<path style="fill:#17ACE8;" d="M467,150H45c-24.902,0-45,20.099-45,45v152c0,24.899,20.098,45,45,45h422c24.902,0,45-20.101,45-45
	V195C512,170.099,491.902,150,467,150z"/>
<path style="fill:#CAE8F9;" d="M135,240H75c-19.773,0-19.854-30,0-30h60C154.773,210,154.854,240,135,240z"/>
<path style="fill:#1689FC;" d="M512,195v152c0,24.899-20.098,45-45,45H257V150h210C491.902,150,512,170.099,512,195z"/>
<path style="fill:#CAE8F9;" d="M90,317v180c0,8.399,6.599,15,15,15h302c8.401,0,15-6.601,15-15V317H90z"/>
<path style="fill:#B7E0F6;" d="M422,317v180c0,8.399-6.599,15-15,15H257V317H422z"/>
<g>
	<path style="fill:#17ACE8;" d="M347,392H165c-19.797,0-19.797-30,0-30h182C366.797,362,366.797,392,347,392z"/>
	<path style="fill:#17ACE8;" d="M347,452H165c-19.797,0-19.797-30,0-30h182C366.797,422,366.797,452,347,452z"/>
</g>
<g>
	<path style="fill:#1689FC;" d="M347,452h-90v-30h90C366.797,422,366.797,452,347,452z"/>
	<path style="fill:#1689FC;" d="M347,392h-90v-30h90C366.797,362,366.797,392,347,392z"/>
	<path style="fill:#1689FC;" d="M437,332H75c-19.797,0-19.797-30,0-30h362C456.797,302,456.797,332,437,332z"/>
</g>
<path style="fill:#136EF1;" d="M437,332H257v-30h180C456.797,302,456.797,332,437,332z"/>
<g>
</g>
<g>
</g>
<g>
</g>
<g>
</g>
<g>
</g>
<g>
</g>
<g>
</g>
<g>
</g>
<g>
</g>
<g>
</g>
<g>
</g>
<g>
</g>
<g>
</g>
<g>
</g>
<g>
</g>
</svg>
