<?xml version="1.0" encoding="iso-8859-1"?>
<!-- Generator: Adobe Illustrator 19.0.0, SVG Export Plug-In . SVG Version: 6.00 Build 0)  -->
<svg version="1.1" id="Capa_1" xmlns="http://www.w3.org/2000/svg" xmlns:xlink="http://www.w3.org/1999/xlink" x="0px" y="0px"
	 viewBox="0 0 512 512" style="enable-background:new 0 0 512 512;" xml:space="preserve">
<path style="fill:#B758CE;" d="M467,60H45C20.098,60,0,80.099,0,105v90c0,8.399,6.599,17,15,17h482c8.401,0,15-8.601,15-17v-90
	C512,80.099,491.902,60,467,60z"/>
<path style="fill:#AA3DC8;" d="M512,105v90c0,8.399-6.599,17-15,17H257V60h210C491.902,60,512,80.099,512,105z"/>
<path style="fill:#B7E0F6;" d="M287,120V30c0-16.569-13.431-30-30-30l0,0c-16.569,0-30,13.431-30,30v90c0,16.569,13.431,30,30,30
	l0,0C273.569,150,287,136.569,287,120z"/>
<path style="fill:#A4D9F5;" d="M287,30v90c0,16.567-13.433,30-30,30V0C273.567,0,287,13.433,287,30z"/>
<path style="fill:#B7E0F6;" d="M135,120V30c0-16.569-13.431-30-30-30l0,0C88.431,0,75,13.431,75,30v90c0,16.569,13.431,30,30,30l0,0
	C121.569,150,135,136.569,135,120z"/>
<path style="fill:#A4D9F5;" d="M437,120V30c0-16.569-13.431-30-30-30l0,0c-16.569,0-30,13.431-30,30v90c0,16.569,13.431,30,30,30
	l0,0C423.569,150,437,136.569,437,120z"/>
<path style="fill:#CAE8F9;" d="M0,180v287c0,24.899,20.098,45,45,45h422c24.902,0,45-20.101,45-45V180H0z"/>
<path style="fill:#B7E0F6;" d="M512,180v287c0,24.899-20.098,45-45,45H257V180H512z"/>
<rect x="75" y="257" style="fill:#CAE8F9;" width="362" height="180"/>
<path style="fill:#1DE8F1;" d="M437,242H75c-8.401,0-15,6.599-15,15v180c0,8.399,6.599,15,15,15h362c8.401,0,15-6.601,15-15V257
	C452,248.599,445.401,242,437,242z M150,422H90v-60h60V422z M150,332H90v-60h60V332z M242,422h-62v-60h62V422z M242,332h-62v-60h62
	V332z M332,422h-60v-60h60V422z M332,332h-60v-60h60V332z M422,422h-60v-60h60V422z M422,332h-60v-60h60V332z"/>
<rect x="257" y="257" style="fill:#B7E0F6;" width="180" height="180"/>
<path style="fill:#1BD9DE;" d="M437,242H257v210h180c8.401,0,15-6.601,15-15V257C452,248.599,445.401,242,437,242z M332,422h-60v-60
	h60V422z M332,332h-60v-60h60V332z M422,422h-60v-60h60V422z M422,332h-60v-60h60V332z"/>
<g>
</g>
<g>
</g>
<g>
</g>
<g>
</g>
<g>
</g>
<g>
</g>
<g>
</g>
<g>
</g>
<g>
</g>
<g>
</g>
<g>
</g>
<g>
</g>
<g>
</g>
<g>
</g>
<g>
</g>
</svg>
