<?xml version="1.0" encoding="iso-8859-1"?>
<!-- Generator: Adobe Illustrator 19.0.0, SVG Export Plug-In . SVG Version: 6.00 Build 0)  -->
<svg version="1.1" id="Capa_1" xmlns="http://www.w3.org/2000/svg" xmlns:xlink="http://www.w3.org/1999/xlink" x="0px" y="0px"
	 viewBox="0 0 512 512" style="enable-background:new 0 0 512 512;" xml:space="preserve">
<path style="fill:#17ACE8;" d="M396.214,363.9c-15.3-6.601-49.797-22.2-65.098-29.101v-42.9c0-13.2-15.601-19.799-25.203-11.1
	c-13.799,12.599-31.798,18.6-49.797,18.6s-35.999-6-49.797-18.6c-9.602-8.401-25.003-1.8-25.003,11.4v42.299
	c-6.299,3.001-10.403,4.801-10.403,4.801l-53.998,24.3c-24.298,8.101-38.397,34.2-32.098,57.9l14.7,78.199
	c1.201,7.2,7.5,12.301,14.7,12.301h283.499c7.2,0,13.198-5.101,14.7-12.001l15-77.899C433.117,397.2,419.014,371.7,396.214,363.9z"
	/>
<path style="fill:#1689FC;" d="M427.415,422.1l-15,77.899c-1.501,6.899-7.5,12.001-14.7,12.001H256.116V299.399
	c17.999,0,35.999-6,49.797-18.6c9.602-8.699,25.203-2.1,25.203,11.1v42.9c15.3,6.901,49.797,22.5,65.098,29.101
	C419.014,371.7,433.117,397.2,427.415,422.1z"/>
<path style="fill:#B7E0F6;" d="M421.116,225c0,90.899-74.099,165-165,165c-19.797,0-19.797-30,0-30c74.399,0,135-60.601,135-135
	C391.116,205.199,421.116,205.199,421.116,225z"/>
<path style="fill:#CAE8F9;" d="M421.116,165c0,19.799-30,19.799-30,0c0-74.401-60.601-135-135-135s-135,60.599-135,135
	c0,19.799-29.8,19.799-29.8,0c0-90.901,73.899-165,164.8-165S421.116,74.099,421.116,165z"/>
<path style="fill:#B7E0F6;" d="M256.116,30V0c90.901,0,165,74.099,165,165c0,19.799-30,19.799-30,0
	C391.116,90.599,330.516,30,256.116,30z"/>
<path style="fill:#136EF1;" d="M421.116,225c0,24.814-20.186,45-45,45h-30c-8.291,0-15-6.709-15-15V135c0-8.291,6.709-15,15-15h30
	c24.814,0,45,20.186,45,45V225z"/>
<path style="fill:#1689FC;" d="M181.116,255c0,8.291-6.709,15-15,15h-30c-24.814,0-44.8-20.186-44.8-45v-60
	c0-24.814,19.986-45,44.8-45h30c8.291,0,15,6.709,15,15V255z"/>
<path style="fill:#FEDBAB;" d="M347.017,112.5c-5.698-9.901-20.101-9.901-25.803,0c-13.499,23.099-38.397,37.5-65.098,37.5h-75
	c-16.569,0-30,13.431-30,30v45c0,60.3,49.2,105,105,105c57.598,0,105-46.8,105-105v-60C361.116,146.7,356.319,128.699,347.017,112.5
	z"/>
<path style="fill:#FEC478;" d="M256.116,330V150c26.7,0,51.599-14.401,65.098-37.5c5.702-9.901,20.105-9.901,25.803,0
	c9.302,16.199,14.099,34.2,14.099,52.5v60C361.116,283.2,313.714,330,256.116,330z"/>
<path style="fill:#1689FC;" d="M347.017,112.5C328.413,80.099,293.616,60,256.116,60c-57.898,0-105,47.1-105,105v15h105
	c37.5,0,72.297-20.101,90.901-52.5l4.497-7.5L347.017,112.5z"/>
<path style="fill:#136EF1;" d="M256.116,180V60c37.5,0,72.297,20.099,90.901,52.5l4.497,7.5l-4.497,7.5
	C328.413,159.899,293.616,180,256.116,180z"/>
<g>
</g>
<g>
</g>
<g>
</g>
<g>
</g>
<g>
</g>
<g>
</g>
<g>
</g>
<g>
</g>
<g>
</g>
<g>
</g>
<g>
</g>
<g>
</g>
<g>
</g>
<g>
</g>
<g>
</g>
</svg>
