<?xml version="1.0" encoding="iso-8859-1"?>
<!-- Generator: Adobe Illustrator 19.0.0, SVG Export Plug-In . SVG Version: 6.00 Build 0)  -->
<svg version="1.1" id="Capa_1" xmlns="http://www.w3.org/2000/svg" xmlns:xlink="http://www.w3.org/1999/xlink" x="0px" y="0px"
	 viewBox="0 0 512 512" style="enable-background:new 0 0 512 512;" xml:space="preserve">
<path style="fill:#CAE8F9;" d="M377,60H15C6.599,60,0,66.599,0,75v332c0,8.399,6.599,15,15,15h362c8.401,0,15-6.601,15-15V75
	C392,66.599,385.401,60,377,60z"/>
<path style="fill:#B7E0F6;" d="M392,75v332c0,8.399-6.599,15-15,15H197V60h180C385.401,60,392,66.599,392,75z"/>
<path style="fill:#1689FC;" d="M347,0H45C20.098,0,0,20.099,0,45v45h392V45C392,20.099,371.902,0,347,0z"/>
<path style="fill:#136EF1;" d="M392,45v45H197V0h150C371.902,0,392,20.099,392,45z"/>
<path style="fill:#1689FC;" d="M377,392H0v75c0,24.899,20.098,45,45,45h332c8.401,0,15-6.601,15-15v-90
	C392,398.599,385.401,392,377,392z"/>
<path style="fill:#136EF1;" d="M392,407v90c0,8.399-6.599,15-15,15H197V392h180C385.401,392,392,398.599,392,407z"/>
<path style="fill:#17ACE8;" d="M467,120H287c-24.902,0-45,20.099-45,45v30c0,8.399,6.599,17,15,17h240c8.401,0,15-8.601,15-17v-30
	C512,140.099,491.902,120,467,120z"/>
<path style="fill:#1689FC;" d="M512,165v30c0,8.399-6.599,17-15,17H377v-92h90C491.902,120,512,140.099,512,165z"/>
<path style="fill:#17ACE8;" d="M497,422H257c-8.401,0-15,6.599-15,15v30c0,24.899,20.098,45,45,45h180c24.902,0,45-20.101,45-45v-30
	C512,428.599,505.401,422,497,422z"/>
<g>
	<path style="fill:#1DE8F1;" d="M197,120H75c-8.401,0-15,6.599-15,15v92c0,8.399,6.599,15,15,15h122c8.401,0,15-6.601,15-15v-92
		C212,126.599,205.401,120,197,120z"/>
	<path style="fill:#1DE8F1;" d="M135,302H75c-19.773,0-19.854-30,0-30h60C154.773,272,154.854,302,135,302z"/>
</g>
<path style="fill:#1689FC;" d="M512,437v30c0,24.899-20.098,45-45,45h-90v-90h120C505.401,422,512,428.599,512,437z"/>
<path style="fill:#CAE8F9;" d="M242,180v272h270V180H242z"/>
<rect x="377" y="180" style="fill:#B7E0F6;" width="135" height="272"/>
<g>
	<path style="fill:#1DE8F1;" d="M452,257c0,8.399-6.599,15-15,15H317c-8.401,0-15-6.601-15-15c0-8.401,6.599-15,15-15h120
		C445.401,242,452,248.599,452,257z"/>
	<path style="fill:#1DE8F1;" d="M392,317c0,8.399-6.599,15-15,15h-60c-8.401,0-15-6.601-15-15c0-8.401,6.599-15,15-15h60
		C385.401,302,392,308.599,392,317z"/>
</g>
<g>
</g>
<g>
</g>
<g>
</g>
<g>
</g>
<g>
</g>
<g>
</g>
<g>
</g>
<g>
</g>
<g>
</g>
<g>
</g>
<g>
</g>
<g>
</g>
<g>
</g>
<g>
</g>
<g>
</g>
</svg>
