<?xml version="1.0" encoding="iso-8859-1"?>
<!-- Generator: Adobe Illustrator 19.0.0, SVG Export Plug-In . SVG Version: 6.00 Build 0)  -->
<svg version="1.1" id="Capa_1" xmlns="http://www.w3.org/2000/svg" xmlns:xlink="http://www.w3.org/1999/xlink" x="0px" y="0px"
	 viewBox="0 0 512 512" style="enable-background:new 0 0 512 512;" xml:space="preserve">
<path style="fill:#CAE8F9;" d="M345,60H15C6.599,60,0,66.599,0,75v332c0,8.401,6.599,15,15,15h330c8.401,0,15-6.599,15-15V75
	C360,66.599,353.401,60,345,60z"/>
<path style="fill:#B7E0F6;" d="M360,75v332c0,8.401-6.599,15-15,15H180V60h165C353.401,60,360,66.599,360,75z"/>
<path style="fill:#1689FC;" d="M315,0H45C20.098,0,0,20.099,0,45v45h360V45C360,20.099,339.902,0,315,0z"/>
<path style="fill:#136EF1;" d="M360,45v45H180V0h135C339.902,0,360,20.099,360,45z"/>
<path style="fill:#FEDB41;" d="M330,377v-45h-15c-24.814,0-45-20.186-45-45V165c0-24.814,20.186-45,45-45h152
	c24.814,0,45,20.186,45,45v122c0,24.814-20.186,45-45,45h-83.789l-27.605,55.605C346.181,397.029,330,390.382,330,377z"/>
<g>
	<path style="fill:#1689FC;" d="M437,210h-92c-19.773,0-19.854-30,0-30h92C456.773,180,456.854,210,437,210z"/>
	<path style="fill:#1689FC;" d="M377,272h-32c-19.773,0-19.854-30,0-30h32C396.773,242,396.854,272,377,272z"/>
	<path style="fill:#1689FC;" d="M0,392v75c0,24.901,20.098,45,45,45h270c24.902,0,45-20.099,45-45v-75H0z"/>
</g>
<path style="fill:#136EF1;" d="M180,392h180v75c0,24.901-20.098,45-45,45H180V392z"/>
<g>
</g>
<g>
</g>
<g>
</g>
<g>
</g>
<g>
</g>
<g>
</g>
<g>
</g>
<g>
</g>
<g>
</g>
<g>
</g>
<g>
</g>
<g>
</g>
<g>
</g>
<g>
</g>
<g>
</g>
</svg>
